<?xml version="1.0" encoding="utf-8"?>
<!-- Generator: Adobe Illustrator 22.1.0, SVG Export Plug-In . SVG Version: 6.00 Build 0)  -->
<svg version="1.1" id="Layer_1" xmlns="http://www.w3.org/2000/svg" xmlns:xlink="http://www.w3.org/1999/xlink" x="0px" y="0px"
	 viewBox="0 0 128 128" style="enable-background:new 0 0 128 128;" xml:space="preserve">
<style type="text/css">
	.st0{fill:#267CB5;}
	.st1{fill:#FFFFFF;}
</style>
<circle class="st0" cx="64" cy="64" r="64"/>
<g>
	<g>
		<path class="st1" d="M96.6,41.3c0.8-0.8,0.8-2,0-2.8l-7.1-7.1c-0.8-0.8-2-0.8-2.8,0l-8.5,8.5c-0.4,0.4-0.4,1,0,1.4l8.5,8.5
			c0.4,0.4,1,0.4,1.4,0L96.6,41.3z"/>
		<path class="st0" d="M87.4,52.1C87.4,52.1,87.4,52.1,87.4,52.1c-0.8,0-1.6-0.3-2.1-0.9l-8.5-8.5c-0.6-0.6-0.9-1.3-0.9-2.1
			c0-0.8,0.3-1.6,0.9-2.1l8.5-8.5c1.5-1.5,4.1-1.5,5.6,0l7.1,7.1c1.6,1.6,1.6,4.1,0,5.6l-8.5,8.5C89,51.8,88.2,52.1,87.4,52.1z
			 M80.3,40.6l7.1,7.1l7.8-7.8l-7.1-7.1L80.3,40.6z"/>
	</g>
	<g>
		<path class="st1" d="M50.1,76.6c-0.3,0.8,0.5,1.5,1.3,1.3l12.4-4.2c0.4-0.1,0.8-0.4,1-0.6l20.7-20.7c1.1-1.1,1.1-2.8,0-3.8
			l-6.1-6.1c-1.1-1.1-2.8-1.1-3.8,0L54.9,63.2c-0.3,0.3-0.5,0.7-0.6,1L50.1,76.6z"/>
		<path class="st0" d="M51.1,79.9c-0.9,0-1.7-0.4-2.3-1c-0.7-0.8-0.9-1.9-0.6-3l4.2-12.4c0.2-0.7,0.6-1.3,1.1-1.8L74.3,41
			c0.9-0.9,2.1-1.4,3.3-1.4c1.3,0,2.4,0.5,3.3,1.4l6.1,6.1c1.8,1.8,1.8,4.8,0,6.7L66.3,74.5c-0.5,0.5-1.1,0.9-1.8,1.1l-12.6,4.2
			C51.6,79.9,51.4,79.9,51.1,79.9z M77.6,43.6c-0.1,0-0.3,0-0.5,0.2L56.4,64.6c-0.1,0.1-0.1,0.2-0.2,0.3l-3.6,10.5l10.5-3.6
			c0.1,0,0.2-0.1,0.3-0.2l20.7-20.7c0.3-0.3,0.3-0.7,0-1l-6.1-6.1C77.9,43.6,77.7,43.6,77.6,43.6z"/>
	</g>
	<g>
		<path class="st1" d="M94,64L94,64c-3.9,0-7,3.1-7,7v10c0,3.3-2.7,6-6,6H47c-3.3,0-6-2.7-6-6V47c0-3.3,2.7-6,6-6h10
			c3.9,0,7-3.1,7-7v0c0-3.9-3.1-7-7-7H34c-3.9,0-7,3.1-7,7v60c0,3.9,3.1,7,7,7h60c3.9,0,7-3.1,7-7V71C101,67.1,97.9,64,94,64z"/>
		<path class="st0" d="M94,103H34c-5,0-9-4-9-9V34c0-5,4-9,9-9h23c5,0,9,4,9,9s-4,9-9,9H47c-2.2,0-4,1.8-4,4v34c0,2.2,1.8,4,4,4h34
			c2.2,0,4-1.8,4-4V71c0-5,4-9,9-9s9,4,9,9v23C103,99,99,103,94,103z M34,29c-2.8,0-5,2.2-5,5v60c0,2.8,2.2,5,5,5h60
			c2.8,0,5-2.2,5-5V71c0-2.8-2.2-5-5-5s-5,2.2-5,5v10c0,4.4-3.6,8-8,8H47c-4.4,0-8-3.6-8-8V47c0-4.4,3.6-8,8-8h10c2.8,0,5-2.2,5-5
			s-2.2-5-5-5H34z"/>
	</g>
</g>
</svg>
