<?xml version="1.0" encoding="utf-8"?>
<!-- Generator: Adobe Illustrator 22.1.0, SVG Export Plug-In . SVG Version: 6.00 Build 0)  -->
<svg version="1.1" id="katman_1" xmlns="http://www.w3.org/2000/svg" xmlns:xlink="http://www.w3.org/1999/xlink" x="0px" y="0px"
	 viewBox="0 0 512 512" style="enable-background:new 0 0 512 512;" xml:space="preserve">
<style type="text/css">
	.st0{fill:#B22835;}
	.st1{fill:#FFFFFF;}
</style>
<circle class="st0" cx="255.6" cy="255.6" r="250.4"/>
<g>
	<g>
		<path class="st1" d="M152.9,413.5c0,4.1,3.4,7.5,7.5,7.5h184c7.6,0,13.8-6.2,13.8-13.8V176.9c0-3.5-2.8-6.3-6.3-6.3H159.2
			c-3.5,0-6.3,2.8-6.3,6.3L152.9,413.5L152.9,413.5z M304.1,211.9h15.4c3.5,0,6.3,2.8,6.3,6.3V369c0,3.5-2.8,6.3-6.3,6.3h-15.4
			c-3.5,0-6.3-2.8-6.3-6.3V218.3C297.7,214.8,300.6,211.9,304.1,211.9z M247.8,211.9h15.4c3.5,0,6.3,2.8,6.3,6.3V369
			c0,3.5-2.8,6.3-6.3,6.3h-15.4c-3.5,0-6.3-2.8-6.3-6.3V218.3C241.5,214.8,244.3,211.9,247.8,211.9z M191.6,211.9H207
			c3.5,0,6.3,2.8,6.3,6.3V369c0,3.5-2.8,6.3-6.3,6.3h-15.4c-3.5,0-6.3-2.8-6.3-6.3V218.3C185.3,214.8,188.1,211.9,191.6,211.9z"/>
		<path class="st0" d="M344.4,424.9h-184c-6.3,0-11.4-5.1-11.4-11.4V176.9c0-5.7,4.6-10.3,10.3-10.3h192.6c5.7,0,10.3,4.6,10.3,10.3
			v230.2C362.1,416.9,354.2,424.9,344.4,424.9z M159.2,174.5c-1.3,0-2.4,1.1-2.4,2.4v236.6c0,2,1.6,3.6,3.6,3.6h184
			c5.5,0,9.9-4.5,9.9-9.9V176.9c0-1.3-1.1-2.4-2.4-2.4H159.2z M319.5,379.3h-15.4c-5.7,0-10.3-4.6-10.3-10.3V218.3
			c0-5.7,4.6-10.3,10.3-10.3h15.4c5.7,0,10.3,4.6,10.3,10.3V369C329.8,374.7,325.2,379.3,319.5,379.3z M304.1,215.8
			c-1.3,0-2.4,1.1-2.4,2.4V369c0,1.3,1.1,2.4,2.4,2.4h15.4c1.3,0,2.4-1.1,2.4-2.4V218.3c0-1.3-1.1-2.4-2.4-2.4H304.1z M263.3,379.3
			h-15.4c-5.7,0-10.3-4.6-10.3-10.3V218.3c0-5.7,4.6-10.3,10.3-10.3h15.4c5.7,0,10.3,4.6,10.3,10.3V369
			C273.5,374.7,268.9,379.3,263.3,379.3z M247.8,215.8c-1.3,0-2.4,1.1-2.4,2.4V369c0,1.3,1.1,2.4,2.4,2.4h15.4
			c1.3,0,2.4-1.1,2.4-2.4V218.3c0-1.3-1.1-2.4-2.4-2.4H247.8z M207,379.3h-15.4c-5.7,0-10.3-4.6-10.3-10.3V218.3
			c0-5.7,4.6-10.3,10.3-10.3H207c5.7,0,10.3,4.6,10.3,10.3V369C217.3,374.7,212.7,379.3,207,379.3z M191.6,215.8
			c-1.3,0-2.4,1.1-2.4,2.4V369c0,1.3,1.1,2.4,2.4,2.4H207c1.3,0,2.4-1.1,2.4-2.4V218.3c0-1.3-1.1-2.4-2.4-2.4H191.6z"/>
	</g>
	<g>
		<path class="st1" d="M318.7,117.9V97.3c0-7.6-6.2-13.8-13.8-13.8h-98.7c-7.6,0-13.8,6.2-13.8,13.8v20.6v4.7v4.7h-46.1
			c-7.6,0-13.8,6.2-13.8,13.8v6.3c0,7.6,6.2,13.8,13.8,13.8h6.6h205.3h6.6c7.6,0,13.8-6.2,13.8-13.8v-6.3c0-7.6-6.2-13.8-13.8-13.8
			h-46.1v-4.7V117.9z M290.6,125.7h-70.2v-3.1v-4.7v0c0-3.5,2.8-6.3,6.3-6.3h57.5c3.5,0,6.3,2.8,6.3,6.3v0v4.7V125.7z"/>
		<path class="st0" d="M364.8,165.1H146.3c-9.8,0-17.8-8-17.8-17.8v-6.3c0-9.8,8-17.8,17.8-17.8h42.2V97.3c0-9.8,8-17.8,17.8-17.8
			h98.7c9.8,0,17.8,8,17.8,17.8v26.1h42.2c9.8,0,17.8,8,17.8,17.8v6.3C382.6,157.2,374.6,165.1,364.8,165.1z M146.3,131.2
			c-5.5,0-9.9,4.5-9.9,9.9v6.3c0,5.5,4.5,9.9,9.9,9.9h218.5c5.5,0,9.9-4.5,9.9-9.9v-6.3c0-5.5-4.5-9.9-9.9-9.9h-50V97.3
			c0-5.5-4.5-9.9-9.9-9.9h-98.7c-5.5,0-9.9,4.5-9.9,9.9v33.9H146.3z M294.5,129.6h-78v-11.7c0-5.7,4.6-10.3,10.2-10.3h57.5
			c5.7,0,10.2,4.6,10.2,10.3V129.6z M224.4,121.8h62.3v-3.9c0-1.3-1.1-2.4-2.4-2.4h-57.5c-1.3,0-2.4,1.1-2.4,2.4V121.8z"/>
	</g>
</g>
</svg>
