<?xml version="1.0" encoding="utf-8"?>
<!-- Generator: Adobe Illustrator 24.0.2, SVG Export Plug-In . SVG Version: 6.00 Build 0)  -->
<svg version="1.1" id="Capa_1" xmlns="http://www.w3.org/2000/svg" xmlns:xlink="http://www.w3.org/1999/xlink" x="0px" y="0px"
	 viewBox="0 0 512 512" style="enable-background:new 0 0 512 512;" xml:space="preserve">
<g>
	<path d="M512,256C512,256,512,256,512,256C512,256,512,256,512,256c-0.1-22.5-0.3-44.7-0.6-63.4c-0.1-4.9-0.1-9.8-0.2-14.7
		c-0.1-5.3-0.3-10.6-0.6-16c-0.8-16.3-2.6-32.9-6.9-49.7c-8-31.5-23.9-57.1-47.1-76c-24-19.6-54.2-31-87.3-33
		c-4.3-0.3-8.5-0.5-12.8-0.7C326.2,0.8,294.9,0,261.7,0c-1.9,0-3.7,0-5.6,0c-0.6,0-1.2,0-1.7,0c-1.1,0-2.2,0-3.4,0
		c-0.4,0-0.8,0-1.2,0c-1.2,0-2.5,0-3.7,0c-1.1,0-2.3,0-3.4,0c-1.4,0-2.7,0-4,0c-1,0-2.1,0-3.1,0c-1.4,0-2.8,0-4.2,0c-1,0-2,0-3,0
		c-1.4,0-2.8,0-4.2,0.1c-1,0-1.9,0-2.9,0c-1.4,0-2.8,0-4.1,0.1c-1,0-1.9,0-2.9,0.1c-1.4,0-2.7,0.1-4.1,0.1c-1,0-2,0-3,0.1
		c-1.3,0-2.6,0.1-3.9,0.1c-1,0-2.1,0.1-3.1,0.1c-1.3,0-2.5,0.1-3.8,0.1c-1.1,0-2.1,0.1-3.2,0.1c-1.2,0-2.4,0.1-3.6,0.1
		c-1.1,0-2.2,0.1-3.3,0.1c-1.2,0-2.3,0.1-3.5,0.1c-1.1,0-2.3,0.1-3.4,0.1c-1.1,0-2.2,0.1-3.3,0.1c-1.2,0-2.3,0.1-3.5,0.1
		c-1.1,0-2.2,0.1-3.2,0.1c-1.2,0.1-2.3,0.1-3.5,0.2c-1.1,0.1-2.2,0.1-3.3,0.2c-1.1,0.1-2.1,0.1-3.2,0.2c-1.2,0.1-2.4,0.1-3.6,0.2
		c-0.8,0-1.5,0.1-2.3,0.1c-3.6,0.2-7.3,0.4-10.9,0.6c-13.7,0.8-27,3.3-39.5,7.3c-12.1,3.9-23.5,9.1-34,15.8c-4.8,3-9.4,6.3-13.8,9.9
		c-0.1,0-0.1,0.1-0.2,0.1c-1.2,1-2.4,2-3.6,3.1c-0.4,0.4-0.9,0.8-1.3,1.2c-0.8,0.7-1.6,1.4-2.4,2.2c-0.5,0.5-1,0.9-1.4,1.4
		c-0.8,0.8-1.6,1.6-2.4,2.4c-0.9,0.9-1.8,1.8-2.6,2.8c-0.4,0.4-0.7,0.8-1.1,1.2c-0.7,0.8-1.5,1.7-2.2,2.5c-0.2,0.2-0.3,0.4-0.5,0.6
		c-8.5,10.1-15.6,21.5-21.1,34.2c0,0.1-0.1,0.2-0.1,0.3c0,0,0,0,0,0c-3.3,7.6-6,15.6-8.2,24.1c-7,27.4-7.4,54.4-7.7,80.4
		c0,1.3,0,2.6-0.1,3.9C0.3,214.3,0,235,0,256c0,0,0,0,0,0c0,0,0,0,0,0s0,0,0,0c0.1,22.5,0.3,44.7,0.6,63.4c0.1,4.9,0.1,9.8,0.2,14.7
		c0.1,5.4,0.3,10.7,0.6,16.2c0.8,16.3,2.6,32.8,6.9,49.5c8,31.5,23.9,57.1,47.1,76c24,19.6,54.2,31,87.3,33
		c4.3,0.3,8.5,0.5,12.8,0.7c30.3,1.6,61.6,2.4,94.8,2.4c1.9,0,3.7,0,5.6,0c0.6,0,1.1,0,1.7,0c1.1,0,2.3,0,3.4,0c0.4,0,0.8,0,1.2,0
		c1.2,0,2.4,0,3.6,0c1.2,0,2.3,0,3.5,0c1.3,0,2.7,0,4,0c1.1,0,2.1,0,3.1,0c1.4,0,2.7,0,4.1,0c1,0,2,0,3,0c1.4,0,2.8,0,4.2-0.1
		c1,0,1.9,0,2.9,0c1.4,0,2.8,0,4.1-0.1c1,0,1.9,0,2.9-0.1c1.3,0,2.7-0.1,4-0.1c1,0,2,0,3-0.1c1.3,0,2.6-0.1,3.9-0.1
		c1,0,2.1-0.1,3.1-0.1c1.3,0,2.5-0.1,3.8-0.1c1.1,0,2.1-0.1,3.2-0.1c1.2,0,2.4-0.1,3.6-0.1c1.1,0,2.2-0.1,3.4-0.1
		c1.1,0,2.3-0.1,3.4-0.1c1.2,0,2.3-0.1,3.5-0.1c1.1,0,2.2-0.1,3.3-0.1c1.2,0,2.3-0.1,3.5-0.1c1.1,0,2.2-0.1,3.2-0.1
		c1.2-0.1,2.3-0.1,3.5-0.2c1.1-0.1,2.2-0.1,3.3-0.2c1.1-0.1,2.2-0.1,3.3-0.2c1.2-0.1,2.3-0.1,3.5-0.2c0.8,0,1.6-0.1,2.4-0.1
		c3.6-0.2,7.2-0.4,10.8-0.6c13.7-0.8,27-3.3,39.5-7.3c12.1-3.9,23.5-9.1,34-15.8c4.8-3,9.4-6.3,13.8-9.9c0.1,0,0.1-0.1,0.2-0.1
		c1.2-1,2.4-2,3.6-3.1c0.4-0.4,0.9-0.8,1.3-1.2c0.8-0.7,1.6-1.4,2.4-2.2c0.5-0.5,1-0.9,1.4-1.4c0.8-0.8,1.6-1.6,2.4-2.4
		c0.9-0.9,1.8-1.8,2.6-2.8c0.4-0.4,0.7-0.8,1.1-1.2c0.7-0.8,1.5-1.7,2.2-2.5c0.2-0.2,0.3-0.4,0.5-0.6c8.5-10.1,15.6-21.5,21.1-34.2
		c0-0.1,0.1-0.2,0.1-0.3c0,0,0,0,0,0c3.3-7.6,6-15.6,8.2-24.1c7-27.4,7.4-54.4,7.7-80.4c0-1.3,0-2.6,0.1-3.9
		C511.7,297.7,511.9,277,512,256C512,256,512,256,512,256z M457.7,410.5c-0.5,1-1,2.1-1.5,3.1c-0.2,0.4-0.4,0.8-0.6,1.2
		c-0.3,0.7-0.7,1.3-1.1,2c-0.3,0.5-0.5,0.9-0.8,1.4c-0.3,0.6-0.7,1.2-1,1.8c-0.4,0.7-0.8,1.4-1.3,2.1c-0.4,0.6-0.8,1.2-1.1,1.8
		c-0.3,0.5-0.7,1-1,1.5c-0.3,0.4-0.6,0.9-0.9,1.3c-0.4,0.5-0.7,1-1.1,1.6c-0.3,0.4-0.7,0.9-1,1.3c-0.6,0.8-1.3,1.7-2,2.5
		c-0.3,0.4-0.7,0.8-1,1.2c-0.4,0.5-0.8,0.9-1.2,1.4c-0.4,0.4-0.8,0.8-1.1,1.3c-0.4,0.4-0.8,0.8-1.2,1.2c-0.7,0.7-1.4,1.5-2.2,2.2
		c-0.4,0.4-0.7,0.7-1.1,1c-0.5,0.5-1,0.9-1.5,1.4c-0.4,0.3-0.7,0.7-1.1,1c-0.7,0.6-1.3,1.2-2,1.7c-0.2,0.1-0.4,0.3-0.5,0.5
		c-17.8,14.5-39.4,22.6-64.4,24.1c-35.2,2.1-71.5,3.1-110.9,3c-6.1,0-12.2,0-18.1,0c-23-0.2-45.1-0.7-66.6-1.6
		c-8.8-0.4-17.5-0.8-26.2-1.4c-25-1.5-46.7-9.6-64.4-24.1c-16.4-13.4-27.7-31.9-33.6-54.9c-5.8-22.8-6.2-47.4-6.5-71.1
		c-0.3-18.6-0.5-40.6-0.6-62.8c0.1-22.3,0.3-44.3,0.6-62.9c0.3-23.7,0.7-48.2,6.5-71.1c1.8-6.9,4-13.4,6.7-19.4
		c0.2-0.4,0.3-0.8,0.5-1.1c0.5-1,1-2.1,1.5-3.1c0.2-0.4,0.4-0.8,0.6-1.2c0.3-0.7,0.7-1.3,1.1-2c0.3-0.5,0.5-0.9,0.8-1.4
		c0.3-0.6,0.7-1.2,1-1.8c0.4-0.7,0.8-1.4,1.3-2.1c0.4-0.6,0.8-1.2,1.1-1.8c0.3-0.5,0.7-1,1-1.5c0.3-0.4,0.6-0.9,0.9-1.3
		c0.4-0.5,0.7-1,1.1-1.6c0.3-0.4,0.7-0.9,1-1.3c0.6-0.8,1.3-1.7,2-2.5c0.3-0.4,0.7-0.8,1-1.2c0.4-0.5,0.8-0.9,1.2-1.4
		c0.4-0.4,0.8-0.8,1.1-1.3c0.4-0.4,0.8-0.8,1.2-1.2c0.7-0.7,1.4-1.5,2.2-2.2c0.4-0.4,0.7-0.7,1.1-1c0.5-0.5,1-0.9,1.5-1.4
		c0.4-0.3,0.7-0.7,1.1-1c0.7-0.6,1.3-1.2,2-1.7c0.2-0.1,0.4-0.3,0.5-0.5c17.8-14.5,39.4-22.6,64.4-24.1c35.2-2.1,71.5-3.1,110.9-3
		c6.1,0,12.2,0,18.1,0c23,0.2,45.1,0.7,66.6,1.6c8.8,0.4,17.5,0.8,26.2,1.4c25,1.5,46.7,9.6,64.4,24.1
		c16.4,13.4,27.7,31.9,33.6,54.9c5.8,22.8,6.2,47.4,6.5,71.1c0.3,18.6,0.5,40.6,0.6,62.8c-0.1,22.3-0.3,44.3-0.6,62.9
		c-0.3,23.7-0.7,48.2-6.5,71.1c-1.8,6.9-4,13.4-6.7,19.4C458,409.8,457.8,410.1,457.7,410.5z"/>
	<path d="M255,131c-68.9,0-125,56.1-125,125s56.1,125,125,125c68.9,0,125-56.1,125-125S323.9,131,255,131z M255,341
		c-46.9,0-85-38.1-85-85s38.1-85,85-85c46.9,0,85,38.1,85,85S301.9,341,255,341z"/>
	<circle cx="394" cy="121" r="30"/>
</g>
</svg>
