<?xml version="1.0" encoding="utf-8"?>
<!-- Generator: Adobe Illustrator 24.0.2, SVG Export Plug-In . SVG Version: 6.00 Build 0)  -->
<svg version="1.1" id="Capa_1" xmlns="http://www.w3.org/2000/svg" xmlns:xlink="http://www.w3.org/1999/xlink" x="0px" y="0px"
	 viewBox="0 0 541 577" style="enable-background:new 0 0 541 577;" xml:space="preserve">
<style type="text/css">
	.st0{fill:#FFFFFF;}
</style>
<g id="Bg">
</g>
<g id="Object">
	<g>
		<g>
			<path class="st0" d="M410.6,119.3c0.1,0,0.3,0,0.4,0c17,0,30.9,14,30.7,31.1c-0.1,17-14.1,30.9-31.4,30.9
				c-17.2-0.3-30.9-14.1-30.7-31.1C379.7,133.1,393.5,119.3,410.6,119.3z"/>
		</g>
		<g>
			<path class="st0" d="M527,159.1c3.9,40.6,6.3,232.7-5.6,277.8c-16,58.9-54.5,93.8-114,103.3c-22.3,3.6-82.4,5.8-142.5,5.8
				c-61.4,0-122.9-2.3-143.5-7.6c-58.6-15.2-93.6-53.3-102.9-112.7c-7-43.6-7.6-246,5-290c16.2-57.3,54.5-91,112.4-100.5
				c26.3-4.3,77.7-5.8,129.5-5.8c48.2,0,96.9,1.3,126.1,3c35.4,1.9,67.9,13.3,94.3,38.6C510.9,95,523.8,125,527,159.1z M477.4,417.1
				c7.4-45.5,7.4-211.1,3.2-253.7c-4.7-45.5-32.5-75.3-77.4-82.4c-22.3-3.4-75.8-4.8-129.2-4.8c-51.4,0-102.6,1.3-125.2,3.9
				c-45.1,5.2-75.4,33-82.5,77.8C59,205.4,59,383,64.6,418.7c5.8,37.2,26.7,62.6,63.7,73c20,5.6,80.1,7.6,139,7.6
				c54.2,0,107.5-1.7,127.4-3.9C440.1,490.3,470.1,462.4,477.4,417.1"/>
		</g>
		<g>
			<path class="st0" d="M272.9,155.4c73,0,131.9,59.3,131.3,132.5c-0.5,73-60.4,132.4-133.6,132.4S138.8,361,139.3,287.8
				C139.9,214.4,199.7,155.1,272.9,155.4z M270.9,373.4c47,0,85.6-37.8,86.4-84.9c0.8-47.5-36.9-86.1-84.2-86.5c-0.3,0-0.5,0-0.8,0
				c-47,0-85.6,37.8-86.4,84.9c-0.8,47.4,36.9,86.1,84.2,86.5C270.5,373.4,270.8,373.4,270.9,373.4"/>
		</g>
	</g>
</g>
</svg>
