<?xml version="1.0" encoding="utf-8"?>
<!-- Generator: Adobe Illustrator 26.2.1, SVG Export Plug-In . SVG Version: 6.00 Build 0)  -->
<svg version="1.1" xmlns="http://www.w3.org/2000/svg" xmlns:xlink="http://www.w3.org/1999/xlink" x="0px" y="0px"
	 viewBox="0 0 193.3 59.1" style="enable-background:new 0 0 193.3 59.1;" xml:space="preserve">
<style type="text/css">
	.st0{fill:#282828;}
	.st1{fill:#FFFFFF;}
	.st2{fill:url(#XMLID_00000021089823960280362530000007075112518478444465_);}
	.st3{fill:url(#XMLID_00000084503181491606593260000017586835525713152403_);}
	.st4{fill:url(#XMLID_00000134964577140686029760000012637435475103035032_);}
	.st5{fill:url(#XMLID_00000051360299916425216950000007937969281088966813_);}
	.st6{fill:url(#XMLID_00000000936885879701231380000006181714534808232099_);}
	.st7{fill:url(#XMLID_00000018203613922516567760000000114121786269133696_);}
	.st8{fill:url(#XMLID_00000149376455077328293160000015170460126258037175_);}
	.st9{fill:url(#XMLID_00000000936512289801796050000012000205742511636367_);}
</style>
<g id="Background">
</g>
<g id="Object">
	<g>
		<polygon id="XMLID_102_" class="st1" points="41.1,11.6 34.4,11.6 26.2,32.2 18,11.6 11.3,11.6 26.2,49 		"/>
		<rect id="XMLID_103_" x="50" y="11.6" class="st1" width="6.3" height="37.4"/>
		<rect id="XMLID_104_" x="66.4" y="42.8" class="st1" width="24.7" height="6.2"/>
		<path id="XMLID_105_" class="st1" d="M78.9,39.4c7.6,0,13.9-6.2,13.9-13.9c0-7.6-6.2-13.9-13.9-13.9S65,17.9,65,25.5
			C65,33.2,71.2,39.4,78.9,39.4z M78.9,17.8c4.3,0,7.7,3.4,7.7,7.7c0,4.3-3.4,7.7-7.7,7.7c-4.3,0-7.7-3.4-7.7-7.7
			C71.2,21.2,74.6,17.8,78.9,17.8z"/>
		<polygon id="XMLID_108_" class="st1" points="121.6,42.8 107.8,42.8 107.8,11.6 101.5,11.6 101.5,49 121.6,49 		"/>
		<polygon id="XMLID_109_" class="st1" points="155.8,42.8 137.1,42.8 137.1,33.4 152.6,33.4 152.6,27.2 137.1,27.2 137.1,17.9 
			155.8,17.9 155.8,11.6 130.8,11.6 130.8,49 155.8,49 		"/>
		<polygon id="XMLID_110_" class="st1" points="169.6,49 175.8,49 175.8,17.9 182,17.9 182,11.6 163.3,11.6 163.3,17.9 169.6,17.9 
					"/>
		<path id="XMLID_111_" class="st1" d="M78.8,41c8.5,0,15.4-6.9,15.4-15.4c0-8.5-6.9-15.4-15.4-15.4c-8.5,0-15.4,6.9-15.4,15.4
			C63.4,34.1,70.3,41,78.8,41z M78.8,11c8.1,0,14.6,6.5,14.6,14.6c0,8-6.5,14.6-14.6,14.6c-8.1,0-14.6-6.5-14.6-14.6
			C64.3,17.5,70.8,11,78.8,11z"/>
	</g>
</g>
</svg>
