<?xml version="1.0" encoding="utf-8"?>
<!-- Generator: Adobe Illustrator 26.2.1, SVG Export Plug-In . SVG Version: 6.00 Build 0)  -->
<svg version="1.1" xmlns="http://www.w3.org/2000/svg" xmlns:xlink="http://www.w3.org/1999/xlink" x="0px" y="0px"
	 viewBox="0 0 193.3 59.1" style="enable-background:new 0 0 193.3 59.1;" xml:space="preserve">
<style type="text/css">
	.st0{fill:#282828;}
	.st1{fill:#FFFFFF;}
	.st2{fill:url(#XMLID_00000109026466298970195990000010699044489043511185_);}
	.st3{fill:url(#XMLID_00000167383515911720355300000006160984425608632244_);}
	.st4{fill:url(#XMLID_00000138548683062191046560000017034647403742363562_);}
	.st5{fill:url(#XMLID_00000048497574390462584590000010519262769636767105_);}
	.st6{fill:url(#XMLID_00000079487756678818496270000000239280284637661607_);}
	.st7{fill:url(#XMLID_00000119088175030799252710000003478737435685572024_);}
	.st8{fill:url(#XMLID_00000179639567050193974750000011949604811302351246_);}
	.st9{fill:url(#XMLID_00000137117350112468626870000010361914953076872612_);}
</style>
<g id="Background">
</g>
<g id="Object">
	<g>
		
			<radialGradient id="XMLID_00000168089478944312339390000016878547691810558624_" cx="26.2014" cy="30.3194" r="16.9156" gradientUnits="userSpaceOnUse">
			<stop  offset="0.5744" style="stop-color:#181415"/>
			<stop  offset="0.7977" style="stop-color:#181415"/>
			<stop  offset="1" style="stop-color:#181415"/>
		</radialGradient>
		
			<polygon id="XMLID_00000176039039093918127170000001203806822169057669_" style="fill:url(#XMLID_00000168089478944312339390000016878547691810558624_);" points="
			41.1,11.6 34.4,11.6 26.2,32.2 18,11.6 11.3,11.6 26.2,49 		"/>
		
			<radialGradient id="XMLID_00000169542924066386320840000017379349088529666993_" cx="53.0911" cy="30.3194" r="13.401" gradientUnits="userSpaceOnUse">
			<stop  offset="0.5744" style="stop-color:#181415"/>
			<stop  offset="0.7977" style="stop-color:#181415"/>
			<stop  offset="1" style="stop-color:#181415"/>
		</radialGradient>
		
			<rect id="XMLID_00000088115059727500237550000015412295999012722613_" x="50" y="11.6" style="fill:url(#XMLID_00000169542924066386320840000017379349088529666993_);" width="6.3" height="37.4"/>
		
			<radialGradient id="XMLID_00000002379964673242306170000000230918890858794419_" cx="78.708" cy="45.921" r="8.9946" gradientUnits="userSpaceOnUse">
			<stop  offset="0.5744" style="stop-color:#181415"/>
			<stop  offset="0.7977" style="stop-color:#181415"/>
			<stop  offset="1" style="stop-color:#181415"/>
		</radialGradient>
		
			<rect id="XMLID_00000065070525305795531560000013202211554258610355_" x="66.4" y="42.8" style="fill:url(#XMLID_00000002379964673242306170000000230918890858794419_);" width="24.7" height="6.2"/>
		
			<radialGradient id="XMLID_00000116945065381513773320000002193229726816941228_" cx="78.8677" cy="25.5157" r="13.8883" gradientUnits="userSpaceOnUse">
			<stop  offset="0.5744" style="stop-color:#181415"/>
			<stop  offset="0.7977" style="stop-color:#181415"/>
			<stop  offset="1" style="stop-color:#181415"/>
		</radialGradient>
		
			<path id="XMLID_00000144297939657793207510000004911320405929991075_" style="fill:url(#XMLID_00000116945065381513773320000002193229726816941228_);" d="
			M78.9,39.4c7.6,0,13.9-6.2,13.9-13.9c0-7.6-6.2-13.9-13.9-13.9S65,17.9,65,25.5C65,33.2,71.2,39.4,78.9,39.4z M78.9,17.8
			c4.3,0,7.7,3.4,7.7,7.7c0,4.3-3.4,7.7-7.7,7.7c-4.3,0-7.7-3.4-7.7-7.7C71.2,21.2,74.6,17.8,78.9,17.8z"/>
		
			<radialGradient id="XMLID_00000127019639751346112070000001370868488481056398_" cx="111.574" cy="30.3194" r="15.0038" gradientUnits="userSpaceOnUse">
			<stop  offset="0.5744" style="stop-color:#181415"/>
			<stop  offset="0.7977" style="stop-color:#181415"/>
			<stop  offset="1" style="stop-color:#181415"/>
		</radialGradient>
		
			<polygon id="XMLID_00000169526676245190510180000014553587056804452004_" style="fill:url(#XMLID_00000127019639751346112070000001370868488481056398_);" points="
			121.6,42.8 107.8,42.8 107.8,11.6 101.5,11.6 101.5,49 121.6,49 		"/>
		
			<radialGradient id="XMLID_00000178896499383763749380000001606548089029993634_" cx="143.2908" cy="30.3194" r="15.8894" gradientUnits="userSpaceOnUse">
			<stop  offset="0.5744" style="stop-color:#181415"/>
			<stop  offset="0.7977" style="stop-color:#181415"/>
			<stop  offset="1" style="stop-color:#181415"/>
		</radialGradient>
		
			<polygon id="XMLID_00000056396524183114116200000001182113492784976810_" style="fill:url(#XMLID_00000178896499383763749380000001606548089029993634_);" points="
			155.8,42.8 137.1,42.8 137.1,33.4 152.6,33.4 152.6,27.2 137.1,27.2 137.1,17.9 155.8,17.9 155.8,11.6 130.8,11.6 130.8,49 
			155.8,49 		"/>
		
			<radialGradient id="XMLID_00000012461490620860277400000012545566847692469174_" cx="172.657" cy="30.3194" r="14.7781" gradientUnits="userSpaceOnUse">
			<stop  offset="0.5744" style="stop-color:#181415"/>
			<stop  offset="0.7977" style="stop-color:#181415"/>
			<stop  offset="1" style="stop-color:#181415"/>
		</radialGradient>
		
			<polygon id="XMLID_00000140696067322468430810000015992992452110169749_" style="fill:url(#XMLID_00000012461490620860277400000012545566847692469174_);" points="
			169.6,49 175.8,49 175.8,17.9 182,17.9 182,11.6 163.3,11.6 163.3,17.9 169.6,17.9 		"/>
		
			<radialGradient id="XMLID_00000144333193320463765140000000525614830555118213_" cx="78.8342" cy="25.5411" r="15.4375" gradientUnits="userSpaceOnUse">
			<stop  offset="0.5744" style="stop-color:#181415"/>
			<stop  offset="0.7977" style="stop-color:#181415"/>
			<stop  offset="1" style="stop-color:#181415"/>
		</radialGradient>
		
			<path id="XMLID_00000124134283994349374940000003304500521937659563_" style="fill:url(#XMLID_00000144333193320463765140000000525614830555118213_);" d="
			M78.8,41c8.5,0,15.4-6.9,15.4-15.4c0-8.5-6.9-15.4-15.4-15.4c-8.5,0-15.4,6.9-15.4,15.4C63.4,34.1,70.3,41,78.8,41z M78.8,11
			c8.1,0,14.6,6.5,14.6,14.6c0,8-6.5,14.6-14.6,14.6c-8.1,0-14.6-6.5-14.6-14.6C64.3,17.5,70.8,11,78.8,11z"/>
	</g>
</g>
</svg>
